HIERARCHY
ROOT hip
{
  OFFSET 0 0 0
  CHANNELS 6 Xposition Yposition Zposition Zrotation Yrotation Xrotation
  JOINT abdomen
  {
    OFFSET 0 20.6881 -0.73152
    CHANNELS 3 Zrotation Xrotation Yrotation
    JOINT chest
    {
      OFFSET 0 11.7043 -0.48768
      CHANNELS 3 Zrotation Xrotation Yrotation
      JOINT neck
      {
        OFFSET 0 22.1894 -2.19456
        CHANNELS 3 Zrotation Xrotation Yrotation
        JOINT head
        {
          OFFSET -0.24384 7.07133 1.2192
          CHANNELS 3 Zrotation Xrotation Yrotation
          JOINT leftEye
          {
            OFFSET 4.14528 8.04674 8.04672
            CHANNELS 3 Zrotation Xrotation Yrotation
            End Site
            {
              OFFSET 1 0 0
            }
          }
          JOINT rightEye
          {
            OFFSET -3.6576 8.04674 8.04672
            CHANNELS 3 Zrotation Xrotation Yrotation
            End Site
            {
              OFFSET 1 0 0
            }
          }
        }
      }
      JOINT rCollar
      {
        OFFSET -2.68224 19.2634 -4.8768
        CHANNELS 3 Zrotation Xrotation Yrotation
        JOINT rShldr
        {
          OFFSET -8.77824 -1.95073 1.46304
          CHANNELS 3 Zrotation Xrotation Yrotation
          JOINT rForeArm
          {
            OFFSET -28.1742 -1.7115 0.48768
            CHANNELS 3 Zrotation Xrotation Yrotation
            JOINT rHand
            {
              OFFSET -22.5879 0.773209 7.07136
              CHANNELS 3 Zrotation Xrotation Yrotation
              JOINT rThumb1
              {
                OFFSET -1.2192 -0.487915 3.41376
                CHANNELS 3 Zrotation Xrotation Yrotation
                JOINT rThumb2
                {
                  OFFSET -3.37035 -0.52449 3.41376
                  CHANNELS 3 Zrotation Xrotation Yrotation
                  End Site
                  {
                    OFFSET -1.78271 -1.18214 1.43049
                  }
                }
              }
              JOINT rIndex1
              {
                OFFSET -7.75947 0.938293 5.60832
                CHANNELS 3 Zrotation Xrotation Yrotation
                JOINT rIndex2
                {
                  OFFSET -2.54057 -0.884171 1.56538
                  CHANNELS 3 Zrotation Xrotation Yrotation
                  End Site
                  {
                    OFFSET -1.62519 -0.234802 1.16502
                  }
                }
              }
              JOINT rMid1
              {
                OFFSET -8.24714 1.18213 3.41376
                CHANNELS 3 Zrotation Xrotation Yrotation
                JOINT rMid2
                {
                  OFFSET -3.10165 -0.590103 1.0647
                  CHANNELS 3 Zrotation Xrotation Yrotation
                  End Site
                  {
                    OFFSET -2.48547 -0.328903 0.83742
                  }
                }
              }
              JOINT rRing1
              {
                OFFSET -8.82822 0.546677 1.51678
                CHANNELS 3 Zrotation Xrotation Yrotation
                JOINT rRing2
                {
                  OFFSET -2.60934 -0.819778 -0.0198488
                  CHANNELS 3 Zrotation Xrotation Yrotation
                  End Site
                  {
                    OFFSET -2.33842 -0.294052 0.168128
                  }
                }
              }
              JOINT rPinky1
              {
                OFFSET -8.27202 -0.0477905 -0.4584
                CHANNELS 3 Zrotation Xrotation Yrotation
                JOINT rPinky2
                {
                  OFFSET -1.82734 -0.647385 -0.700984
                  CHANNELS 3 Zrotation Xrotation Yrotation
                  End Site
                  {
                    OFFSET -1.69225 -0.51767 -0.607171
                  }
                }
              }
            }
          }
        }
      }
      JOINT lCollar
      {
        OFFSET 2.68224 19.2634 -4.8768
        CHANNELS 3 Zrotation Xrotation Yrotation
        JOINT lShldr
        {
          OFFSET 8.77824 -1.95073 1.46304
          CHANNELS 3 Zrotation Xrotation Yrotation
          JOINT lForeArm
          {
            OFFSET 28.1742 -1.7115 0.48768
            CHANNELS 3 Zrotation Xrotation Yrotation
            JOINT lHand
            {
              OFFSET 22.5879 0.773209 7.07136
              CHANNELS 3 Zrotation Xrotation Yrotation
              JOINT lThumb1
              {
                OFFSET 1.2192 -0.487915 3.41376
                CHANNELS 3 Zrotation Xrotation Yrotation
                JOINT lThumb2
                {
                  OFFSET 3.37035 -0.52449 3.41376
                  CHANNELS 3 Zrotation Xrotation Yrotation
                  End Site
                  {
                    OFFSET 1.78271 -1.18214 1.43049
                  }
                }
              }
              JOINT lIndex1
              {
                OFFSET 7.75947 0.938293 5.60832
                CHANNELS 3 Zrotation Xrotation Yrotation
                JOINT lIndex2
                {
                  OFFSET 2.54057 -0.884171 1.56538
                  CHANNELS 3 Zrotation Xrotation Yrotation
                  End Site
                  {
                    OFFSET 1.62519 -0.234802 1.16502
                  }
                }
              }
              JOINT lMid1
              {
                OFFSET 8.24714 1.18213 3.41376
                CHANNELS 3 Zrotation Xrotation Yrotation
                JOINT lMid2
                {
                  OFFSET 3.10165 -0.590103 1.0647
                  CHANNELS 3 Zrotation Xrotation Yrotation
                  End Site
                  {
                    OFFSET 2.48547 -0.328903 0.83742
                  }
                }
              }
              JOINT lRing1
              {
                OFFSET 8.82822 0.546677 1.51678
                CHANNELS 3 Zrotation Xrotation Yrotation
                JOINT lRing2
                {
                  OFFSET 2.60934 -0.819778 -0.0198488
                  CHANNELS 3 Zrotation Xrotation Yrotation
                  End Site
                  {
                    OFFSET 2.33842 -0.294052 0.168128
                  }
                }
              }
              JOINT lPinky1
              {
                OFFSET 8.27202 -0.0477905 -0.4584
                CHANNELS 3 Zrotation Xrotation Yrotation
                JOINT lPinky2
                {
                  OFFSET 1.82734 -0.647385 -0.700984
                  CHANNELS 3 Zrotation Xrotation Yrotation
                  End Site
                  {
                    OFFSET 1.69225 -0.51767 -0.607171
                  }
                }
              }
            }
          }
        }
      }
    }
  }
  JOINT rButtock
  {
    OFFSET -8.77824 4.35084 1.2192
    CHANNELS 3 Zrotation Xrotation Yrotation
    JOINT rThigh
    {
      OFFSET 0 -1.70687 -2.19456
      CHANNELS 3 Zrotation Xrotation Yrotation
      JOINT rShin
      {
        OFFSET 0 -36.8199 0.73152
        CHANNELS 3 Zrotation Xrotation Yrotation
        JOINT rFoot
        {
          OFFSET 0.73152 -45.1104 -5.12064
          CHANNELS 3 Zrotation Xrotation Yrotation
          End Site
          {
            OFFSET -1.1221 -3.69964 12.103
          }
        }
      }
    }
  }
  JOINT lButtock
  {
    OFFSET 8.77824 4.35084 1.2192
    CHANNELS 3 Zrotation Xrotation Yrotation
    JOINT lThigh
    {
      OFFSET 0 -1.70687 -2.19456
      CHANNELS 3 Zrotation Xrotation Yrotation
      JOINT lShin
      {
        OFFSET 0 -36.8199 0.73152
        CHANNELS 3 Zrotation Xrotation Yrotation
        JOINT lFoot
        {
          OFFSET -0.73152 -45.1104 -5.12064
          CHANNELS 3 Zrotation Xrotation Yrotation
          End Site
          {
            OFFSET 1.1221 -3.69964 12.103
          }
        }
      }
    }
  }
}
MOTION
Frames:	4
Frame Time:	0.03333
0.0 0.0 0.0 0.0 0.0 0.0 0.0 0.0 0.0 0.0 0.0 0.0 0.0 0.0 0.0 0.0 0.0 0.0 0.0 0.0 0.0 0.0 0.0 0.0 0.0 0.0 0.0 0.0 0.0 0.0 0.0 0.0 0.0 0.0 0.0 0.0 0.0 0.0 0.0 0.0 0.0 0.0 0.0 0.0 0.0 0.0 0.0 0.0 0.0 0.0 0.0 0.0 0.0 0.0 0.0 0.0 0.0 0.0 0.0 0.0 0.0 0.0 0.0 0.0 0.0 0.0 0.0 0.0 0.0 0.0 0.0 0.0 0.0 0.0 0.0 0.0 0.0 0.0 0.0 0.0 0.0 0.0 0.0 0.0 0.0 0.0 0.0 0.0 0.0 0.0 0.0 0.0 0.0 0.0 0.0 0.0 0.0 0.0 0.0 0.0 0.0 0.0 0.0 0.0 0.0 0.0 0.0 0.0 0.0 0.0 0.0 0.0 0.0 0.0 0.0 0.0 0.0 0.0 0.0 0.0 0.0 0.0 0.0 0.0 0.0 0.0 0.0 0.0 0.0 0.0 0.0 0.0
0.006 62.012 -0.004 179.88781 -58.833614 179.143686 0.009637 4.431376 -0.000344 8.962175 3.314923 -53.22083 10.024136 -11.109803 97.90023 -18.793013 -29.748254 -29.497467 -162.342509 9.257048 55.060166 21.299232 -2.709564 -14.336816 -84.791064 -36.315402 161.976085 -169.48527 -12.725324 168.073415 -16.304319 -89.412826 149.862424 161.314519 -27.991119 80.906587 -97.42838 14.338784 38.177172 42.761568 19.441013 168.696091 -141.258206 15.367707 132.435523 68.314194 12.366456 142.80554 -20.481255 -11.701483 -120.255743 -42.602192 82.576966 -41.971734 -6.013 8.439384 -106.755129 -7.038992 22.112015 35.284759 165.925371 22.54503 -64.099562 -59.218254 81.521633 86.308759 -76.397095 34.41315 -9.412006 -10.36912 -55.796767 -8.179116 72.745329 -86.403391 -79.508631 2.418737 15.630683 50.390591 -1.807464 -17.508746 -25.98699 -28.813151 -60.464706 11.878093 85.340689 -11.088773 -49.817983 -90.43394 -57.289985 0.605123 166.709738 -8.834793 -120.290106 177.060941 50.22348 -67.061966 -4.386854 22.798289 91.029163 -34.394018 25.931601 12.567257 143.347395 35.450426 66.809369 49.842001 60.444649 -74.901495 58.856962 1.978117 89.104392 -1.537861 58.048758 -178.18772 -6.875229 0.363899 -90.363006 75.566772 14.44985 -88.683749 0.612172 52.690694 -180.0 1.540696 54.142427 -1.23087 5.689559 -6.353331 51.48569 -56.465346 -42.833098 114.98057
-0.3217 63.36039999999999 -0.4937 173.618463 26.93882 175.879951 -12.38949 18.258538 3.440282 5.406074 -8.8749 -9.638325 7.139857 27.581465 94.689828 -45.698164 11.832454 -115.56664 5.824119 -2.125164 -40.065517 10.45293 6.152027 60.866504 -30.092595 57.178181 31.680206 -150.857943 -14.155153 132.845561 -24.074011 -70.89837 -110.586585 166.929966 -28.637302 137.356115 2.058815 -4.35792 4.945721 9.67186 -38.680882 -24.483755 -44.279378 44.536758 30.740104 -151.773074 23.042139 86.644269 -146.133826 32.219249 130.181095 -43.222269 53.465542 47.606754 -136.590382 12.038531 170.153613 -59.364399 -80.107067 -95.738608 -130.076058 13.825864 -150.287754 -116.38368 32.080838 -164.219933 -0.944961 18.216793 0.714334 116.85071 -14.897248 -156.595477 -178.41739 -2.317398 129.669101 5.283065 -2.534376 2.297305 171.973417 -7.50324 -102.101065 -89.808639 -80.859151 -83.664488 -33.193314 -69.623195 1.147376 28.50887 56.93641 -19.915626 1.138758 -27.663343 0.15697 -21.117744 -24.58377 13.313174 138.820645 -37.071741 152.019611 -33.567689 -2.316731 16.042289 -23.421114 24.385915 -0.74355 159.887135 -21.208291 118.907647 -144.151245 65.779912 -30.040637 135.473693 10.946756 -180.0 26.963787 -60.959117 139.508995 83.420735 54.599239 -0.54787 -39.29964 13.820903 -38.856029 54.114643 24.511867 -73.292204 -40.293237 -29.514785 11.343959 103.116947 -40.68509 174.350536
0.1321 61.6191 -1.6102999999999998 170.205685 27.000367 171.929835 -14.970306 16.539751 -120.996288 -0.221508 9.305499 114.336938 -22.615235 14.688619 -51.957475 39.861652 -1.257813 32.090964 -42.159656 17.403205 -43.311584 -21.010454 -5.293509 27.996348 -6.96092 25.36735 10.153132 87.834858 -60.128153 35.997064 -108.584823 7.056181 118.391912 45.735408 -58.988837 29.115027 -14.436954 9.89086 8.117641 13.085292 -14.787213 -7.898171 -146.203216 -4.777743 103.502851 -161.978964 -12.725069 90.422939 -85.859233 71.970664 86.292973 -172.942956 12.115881 150.885221 6.560036 22.443243 27.385388 -78.763885 -52.638511 -103.160832 -146.357837 -12.387257 -147.017342 -27.079416 -40.587323 -12.555515 21.698737 60.25851 -26.780728 97.362951 10.767277 -118.465726 -99.224461 20.578135 108.398776 113.934446 71.779377 -90.1339 -54.625592 -47.273634 -6.841444 -93.506174 -83.793064 -24.450851 83.655612 44.323057 -79.689423 -0.23492 -15.255903 25.349614 -92.711384 -75.398634 -55.9716 168.261446 18.253226 -127.104085 -7.925459 43.835297 5.535233 -139.936836 -56.956868 -141.532395 80.472487 -39.615536 77.528082 123.291099 40.376845 164.800545 27.261241 14.767691 15.017727 -99.210724 -36.825409 -163.336379 -80.269151 -7.500811 -79.577101 -61.332285 19.795516 -179.341683 -118.018588 82.290745 -62.196599 -58.672664 75.963987 -0.0 32.356709 -18.74466 -112.182558 71.41946 14.115881 3.562692
